<?xml version="1.0" standalone="no"?><!DOCTYPE svg PUBLIC "-//W3C//DTD SVG 1.1//EN" "http://www.w3.org/Graphics/SVG/1.1/DTD/svg11.dtd"><svg class="icon" width="256px" height="256.00px" viewBox="0 0 1024 1024" version="1.1" xmlns="http://www.w3.org/2000/svg"><path d="M521.9 774.3c-2.6 0-5.2 0-8.1-0.1-0.5 0-0.9-0.4-1-0.9s0.3-1 0.9-1c25.1-3.6 43.1-10.7 49.6-19.4 1.9-2.6 2.7-5.2 2.3-7.7-1.5-9.6-20.6-15.4-51.1-15.4-7.5 0-15.7 0.4-24.3 1.1-21 1.7-42.3 6.8-58.3 13.8-0.1 0.1-0.3 0.1-0.4 0.1-0.3 0-0.7-0.2-0.9-0.5-0.3-0.4-0.2-1 0.2-1.3 13.3-10.5 40.1-24 92-28.9 6.4-0.6 12.9-0.9 19.2-0.9 19.7 0 37.9 3 51 8.6 14.1 5.9 21.5 14 21.5 23.6 0 16-40.7 28.9-92.6 28.9zM523.9 650.2c-140.5 0-208.1-49.7-240.1-91.4-0.3-0.4-0.3-1 0.1-1.3 0.2-0.2 0.5-0.3 0.7-0.3 0.2 0 0.4 0.1 0.6 0.2 74.6 56.5 168 59.4 186 59.4H474.1c15.1 2 30 3 44.5 3 109.8 0 182.9-57 195.6-152.6 0.1-0.7 9.4-74.8 29.6-120.5 0.2-0.4 0.5-0.6 0.9-0.6h0.3c0.5 0.2 0.8 0.6 0.7 1.1-4.5 23.8-5.2 49.3-6 81.6-0.6 25.3-1.4 54-4 89.9-2.9 29.3-25.9 61.7-61.4 86.7-41.1 28.9-94.5 44.8-150.4 44.8z"  /><path d="M500 857.8c-94.2 0-182.8-10.4-249.4-29.4-67-19.1-103.9-44.6-103.9-71.8 0-16.7 13.5-32.5 40-47 25.1-13.7 61.6-25.8 105.6-35h0.2c0.4 0 0.8 0.3 1 0.7 0.1 0.5-0.2 1-0.7 1.2-52.9 17-82.1 38.8-82.1 61.3 0 24.6 33.9 47.8 95.5 65.4 62 17.7 144.4 27.4 232.1 27.4 151.2 0 276.4-26.2 311.6-65.1 0.2-0.2 0.5-0.3 0.7-0.3 0.2 0 0.3 0 0.5 0.1 0.4 0.2 0.6 0.7 0.4 1.2-8.4 25-48.8 48.1-113.7 65-65 16.9-149.5 26.3-237.8 26.3zM820.4 530.6c-1.7 0-3.4-1.1-4.1-2.8-0.7-1.7-0.4-3.4 0.9-4.7 4.3-4.4 0.8-9.2-5.3-16.6-5.6-6.7-11.9-14.2-8-22.4 4.9-10.2 16.1-24.3 26.9-37.9 8.7-10.9 16.9-21.2 21.9-29.5 8.4-13.7 16.3-44 16.6-63.5-0.3-45.6-25.6-75.4-67.9-79.7-1.6-0.2-3.2-0.2-4.9-0.2-21.6 0-45.6 14.6-71.1 43.4-37.4 42.2-155.5 64.7-226.4 64.7-68.5 0-132.9-10.4-181.4-29.2-48.8-19-75.6-44.3-75.6-71.3 0-23.9 21.8-49.3 59.8-69.6 39.3-21 91.9-34.9 148.1-39.2 1.5-0.1 3.3-0.2 5.4-0.3 13.3-0.9 37.9-2.5 66.1-2.5 16 0 31 0.5 44.7 1.6h0.5c13.7 1 59.6 4.8 72.7 11.8 0.4 0.2 0.6 0.7 0.5 1.2-0.1 0.4-0.5 0.7-0.9 0.7h-0.1c-24-3.6-72.6-4.8-73-4.8-3.1-0.1-6.3-0.1-9.5-0.1-44.4 0-87.5 5.3-101.4 7.9-87.2 16.2-149 55.8-147 94.2 1.2 21.3 21.4 39.8 58.4 53.3 36 13.1 85.9 20.3 140.3 20.3 10 0 20.3-0.2 30.6-0.7 24-1.1 145.5-8.6 180.1-45.7 24.7-26.4 52.7-56.3 89.7-56.3h1.7c41.7 1 87.6 35.8 89.5 86 2 21-10 61.7-18.4 74.3-9.5 14.4-17.4 23-25 31.4-7.4 8.1-14.3 15.7-21.6 27.6-5.3 8.6-4.1 19.2-3 29.5 1.3 12 2.6 23.3-7.3 28.8-1 0.1-1.7 0.3-2.5 0.3z"  /></svg>