<?xml version="1.0" encoding="UTF-8"?>
<svg id="Layer_1" data-name="Layer 1" xmlns="http://www.w3.org/2000/svg" version="1.1" viewBox="0 0 187.9 172.1">
  <defs>
    <style>
      .cls-1 {
        fill: #000;
        stroke-width: 0px;
      }
    </style>
  </defs>
  <path class="cls-1" d="M93.8,151.3c-.6,0-1.3,0-2,0-.1,0-.2-.1-.2-.2s0-.2.2-.2c6.3-.9,10.8-2.7,12.4-4.9.5-.6.7-1.3.6-1.9-.4-2.4-5.1-3.9-12.8-3.9s-3.9.1-6.1.3c-5.2.4-10.6,1.7-14.6,3.4,0,0,0,0,0,0,0,0-.2,0-.2-.1,0-.1,0-.2,0-.3,3.3-2.6,10-6,23-7.2,1.6-.1,3.2-.2,4.8-.2,4.9,0,9.5.8,12.8,2.1,3.5,1.5,5.4,3.5,5.4,5.9,0,4-10.2,7.2-23.1,7.2h0ZM94.3,120.2c-35.1,0-52-12.4-60-22.9,0-.1,0-.2,0-.3,0,0,.1,0,.2,0s0,0,.2,0c18.7,14.1,42,14.9,46.5,14.9h.7c3.8.5,7.5.8,11.1.8,27.4,0,45.7-14.2,48.9-38.2,0-.2,2.4-18.7,7.4-30.1,0,0,.1-.2.2-.2h0c.1,0,.2.2.2.3-1.1,5.9-1.3,12.3-1.5,20.4-.1,6.3-.4,13.5-1,22.5-.7,7.3-6.5,15.4-15.4,21.7-10.3,7.2-23.6,11.2-37.6,11.2h0Z"/>
  <path class="cls-1" d="M88.3,172.1c-23.6,0-45.7-2.6-62.3-7.4-16.8-4.8-26-11.1-26-17.9s3.4-8.1,10-11.8c6.3-3.4,15.4-6.4,26.4-8.8h0c0,0,.2,0,.2.2,0,.1,0,.2-.2.3-13.2,4.2-20.5,9.7-20.5,15.3s8.5,11.9,23.9,16.4c15.5,4.4,36.1,6.9,58,6.9,37.8,0,69.1-6.6,77.9-16.3,0,0,.1,0,.2,0s0,0,.1,0c.1,0,.1.2.1.3-2.1,6.2-12.2,12-28.4,16.2-16.2,4.2-37.4,6.6-59.4,6.6h0ZM168.4,90.3c-.4,0-.9-.3-1-.7-.2-.4-.1-.9.2-1.2,1.1-1.1.2-2.3-1.3-4.2-1.4-1.7-3-3.6-2-5.6,1.2-2.6,4-6.1,6.7-9.5,2.2-2.7,4.2-5.3,5.5-7.4,2.1-3.4,4.1-11,4.1-15.9,0-11.4-6.4-18.8-17-19.9-.4,0-.8,0-1.2,0-5.4,0-11.4,3.7-17.8,10.8-9.4,10.6-38.9,16.2-56.6,16.2s-33.2-2.6-45.3-7.3c-12.2-4.8-18.9-11.1-18.9-17.8s5.4-12.3,14.9-17.4C48.6,5.2,61.8,1.8,75.8.7c.4,0,.8,0,1.3,0,3.3-.2,9.5-.6,16.5-.6s7.8.1,11.2.4h.1c3.4.2,14.9,1.2,18.2,3,.1,0,.1.2.1.3,0,0-.1.2-.2.2h0c-6-.9-18.1-1.2-18.2-1.2-.8,0-1.6,0-2.4,0-11.1,0-21.9,1.3-25.3,2-21.8,4-37.2,14-36.8,23.5.3,5.3,5.3,9.9,14.6,13.3,9,3.3,21.5,5.1,35.1,5.1s5.1,0,7.6-.2c6-.3,36.4-2.2,45-11.4,6.2-6.6,13.2-14.1,22.4-14.1h.4c10.4.2,21.9,9,22.4,21.5.5,5.2-2.5,15.4-4.6,18.6-2.4,3.6-4.4,5.8-6.2,7.8-1.9,2-3.6,3.9-5.4,6.9-1.3,2.2-1,4.8-.8,7.4.3,3,.6,5.8-1.8,7.2-.2,0-.4,0-.6,0h0Z"/>
</svg>